<?xml version="1.0" encoding="UTF-8"?>
<svg version="1.1" xmlns="http://www.w3.org/2000/svg" width="298" height="109">
<path d="M0 0 C98.34 0 196.68 0 298 0 C298 35.97 298 71.94 298 109 C199.66 109 101.32 109 0 109 C0 73.03 0 37.06 0 0 Z " fill="#010000" transform="translate(0,0)"/>
<path d="M0 0 C0.94552734 -0.00257813 1.89105469 -0.00515625 2.86523438 -0.0078125 C11.09999451 0.10857987 11.09999451 0.10857987 14.4375 3.5 C15.94752944 10.3231256 13.7968338 18.09390086 12.4375 24.8125 C12.0584377 26.72445951 11.68329742 28.6372017 11.3125 30.55078125 C11.14492188 31.38262939 10.97734375 32.21447754 10.8046875 33.0715332 C10.41914487 35.62139528 10.23782246 37.92670992 10.4375 40.5 C12.3641945 42.73946465 12.3641945 42.73946465 15.5 43.4375 C16.9540625 43.9634375 16.9540625 43.9634375 18.4375 44.5 C19.50388272 47.69914815 19.38636579 48.63663237 18.66015625 51.80859375 C18.47646484 52.63810547 18.29277344 53.46761719 18.10351562 54.32226562 C17.90435547 55.18529297 17.70519531 56.04832031 17.5 56.9375 C17.11217109 58.64369121 16.72792397 60.35070143 16.34765625 62.05859375 C16.17371338 62.81454834 15.99977051 63.57050293 15.82055664 64.34936523 C15.32059765 66.79225666 15.32059765 66.79225666 15.4375 70.5 C22.32485527 64.33087918 29.07386387 58.02426217 35.6875 51.5625 C36.68922241 50.60525024 36.68922241 50.60525024 37.71118164 49.62866211 C38.32727295 49.02030518 38.94336426 48.41194824 39.578125 47.78515625 C40.40618652 46.97896851 40.40618652 46.97896851 41.25097656 46.15649414 C42.82570962 44.2976241 42.82570962 44.2976241 42.4375 40.5 C40.14120006 39.35185003 38.36051914 39.19230191 35.8125 38.9375 C34.99523437 38.85371094 34.17796875 38.76992188 33.3359375 38.68359375 C32.39621094 38.59271484 32.39621094 38.59271484 31.4375 38.5 C31.9783805 33.36327185 33.17106447 29.25263593 35.2734375 24.54296875 C35.55345612 23.91393143 35.83347473 23.2848941 36.12197876 22.63679504 C36.71106791 21.31978532 37.30458447 20.00474768 37.90234375 18.69165039 C38.81545 16.68100414 39.70925006 14.6625247 40.6015625 12.64257812 C41.17855537 11.35886554 41.75664214 10.07564395 42.3359375 8.79296875 C43.11976807 7.05309692 43.11976807 7.05309692 43.91943359 5.27807617 C45.4375 2.5 45.4375 2.5 48.4375 0.5 C50.55053711 0.24121094 50.55053711 0.24121094 52.96484375 0.234375 C53.83947266 0.23179687 54.71410156 0.22921875 55.61523438 0.2265625 C56.98131836 0.23816406 56.98131836 0.23816406 58.375 0.25 C59.7352832 0.23839844 59.7352832 0.23839844 61.12304688 0.2265625 C61.99896484 0.22914063 62.87488281 0.23171875 63.77734375 0.234375 C64.57519287 0.23663086 65.37304199 0.23888672 66.19506836 0.24121094 C68.69465958 0.52967764 70.29768359 1.19423064 72.4375 2.5 C74.27965082 4.95620109 74.47079566 6.15883245 74.17094421 9.23129272 C73.35597531 12.86332736 72.06485921 15.72567256 70.38989258 19.04931641 C70.07751648 19.67465271 69.76514038 20.29998901 69.44329834 20.9442749 C68.41375306 23.00059104 67.37299444 25.05100613 66.33203125 27.1015625 C65.60726349 28.54362292 64.88321019 29.98604261 64.15983582 31.42880249 C62.25395266 35.2253256 60.33852944 39.01695558 58.42102051 42.80761719 C56.49050077 46.62800568 54.56880701 50.45282604 52.64648438 54.27734375 C50.47460596 58.59675088 48.30176859 62.9156608 46.1230011 67.2315979 C45.79069835 67.89010931 45.4583956 68.54862072 45.11602306 69.22708702 C44.46860913 70.50832328 43.81995146 71.78893195 43.16994953 73.06885719 C41.66488545 76.03753644 40.1930372 79.01326638 38.76156616 82.01873779 C38.24687775 83.09327209 37.73218933 84.1678064 37.2019043 85.27490234 C36.76154343 86.21490082 36.32118256 87.15489929 35.86747742 88.12338257 C34.31931627 90.69642094 33.00592087 91.97110681 30.4375 93.5 C26.30825362 94.09254802 22.18902105 94.05743392 18.02026367 94.0559082 C16.00831779 94.06247286 14.00130762 94.11697365 11.99023438 94.17382812 C10.71599609 94.17962891 9.44175781 94.18542969 8.12890625 94.19140625 C6.96560791 94.20373291 5.80230957 94.21605957 4.60375977 94.22875977 C1.07845835 93.41736145 -0.45404382 92.23603702 -2.58192444 89.31266785 C-4.28657508 86.16149262 -4.75980248 82.86834938 -5.1875 79.3671875 C-5.30015701 78.58550201 -5.41281403 77.80381653 -5.52888489 76.9984436 C-5.89149546 74.45946468 -6.22683847 71.91766815 -6.5625 69.375 C-6.93413667 66.7267624 -7.31302442 64.07963399 -7.69282532 61.43255615 C-7.94716033 59.65930333 -8.19934656 57.88574098 -8.4493866 56.11187744 C-9.5503386 48.36402638 -10.9265037 40.6898584 -12.375 33 C-15.03256543 18.41465561 -15.03256543 18.41465561 -15.6875 11.5625 C-15.79320312 10.48097656 -15.89890625 9.39945313 -16.0078125 8.28515625 C-15.5625 5.5 -15.5625 5.5 -13.71484375 2.65234375 C-9.17252671 -0.44904001 -5.37238478 -0.16179667 0 0 Z " fill="#FC2500" transform="translate(31.5625,7.5)"/>
<path d="M0 0 C5.28 0 10.56 0 16 0 C15.34935985 8.42719089 14.15608 16.65480217 12.71484375 24.98046875 C12.49429825 26.27447098 12.27375275 27.56847321 12.04652405 28.90168762 C11.46666501 32.30359743 10.88176055 35.70461994 10.29571533 39.10546875 C9.69598109 42.59126439 9.10114092 46.07789484 8.50585938 49.56445312 C7.34196406 56.37711719 6.17227103 63.18877221 5 70 C-0.28 70 -5.56 70 -11 70 C-11.33 68.02 -11.66 66.04 -12 64 C-13.3303125 65.175625 -13.3303125 65.175625 -14.6875 66.375 C-19.41421798 70.25530569 -23.54731808 71.52550091 -29.65234375 71.3828125 C-34.89828935 70.5274004 -38.78603201 67.60557057 -41.9375 63.4375 C-45.53669366 55.1805263 -45.22383637 44.50262103 -42.375 36.0625 C-39.10495739 28.34060991 -34.44538694 22.06755106 -27 18 C-24.625 17.1875 -24.625 17.1875 -22 17 C-21.319375 16.91492188 -20.63875 16.82984375 -19.9375 16.7421875 C-15.28421442 16.38061463 -12.60378651 16.8080786 -8.9375 19.8125 C-7.21484375 21.39453125 -7.21484375 21.39453125 -6 23 C-6 23.99 -6 24.98 -6 26 C-5.34 26 -4.68 26 -4 26 C-3.96261719 25.21238281 -3.92523438 24.42476562 -3.88671875 23.61328125 C-3.39374354 15.44535867 -2.00504379 7.93299934 0 0 Z " fill="#FA2500" transform="translate(268,29)"/>
<path d="M0 0 C3.35701851 2.45104489 5.62478168 4.96586115 6.34570312 9.12182617 C6.13121157 18.12829747 4.90998703 26.82383951 3.3671875 35.67578125 C3.12533331 37.109863 2.88444249 38.54410756 2.64453125 39.97851562 C2.06486719 43.44250808 1.46575175 46.90229722 0.8671875 50.36328125 C-4.4128125 50.36328125 -9.6928125 50.36328125 -15.1328125 50.36328125 C-15.1328125 48.38328125 -15.1328125 46.40328125 -15.1328125 44.36328125 C-15.9990625 45.14703125 -16.8653125 45.93078125 -17.7578125 46.73828125 C-22.96114557 51.00985468 -28.1225097 51.82270868 -34.73046875 51.68359375 C-39.21214702 51.08603665 -41.77175636 48.58823178 -45.0078125 45.67578125 C-47.13107487 41.31129749 -46.85464864 36.76940173 -45.4765625 32.17578125 C-43.21147595 27.02075669 -40.09802976 23.96259371 -35.1328125 21.36328125 C-29.3834118 19.1339218 -23.34086703 18.65866978 -17.2421875 17.92578125 C-13.97967704 17.54843526 -13.97967704 17.54843526 -11.1328125 15.36328125 C-11.1328125 14.04328125 -11.1328125 12.72328125 -11.1328125 11.36328125 C-14.26223715 9.79856892 -17.74363473 9.66626167 -21.1328125 10.36328125 C-21.71804687 11.02457031 -22.30328125 11.68585937 -22.90625 12.3671875 C-26.03606664 15.17304066 -28.90472918 14.80880141 -32.8828125 14.61328125 C-33.58019531 14.59523438 -34.27757812 14.5771875 -34.99609375 14.55859375 C-36.70892789 14.51166679 -38.42105074 14.4399273 -40.1328125 14.36328125 C-39.01239097 9.02960792 -36.40188496 4.944756 -31.94140625 1.8359375 C-22.05577172 -3.78275099 -10.51042608 -4.96893684 0 0 Z " fill="#F92500" transform="translate(184.1328125,48.63671875)"/>
<path d="M0 0 C-0.11376617 2.12563103 -0.24135631 4.2505261 -0.375 6.375 C-0.44460937 7.55835938 -0.51421875 8.74171875 -0.5859375 9.9609375 C-1 13 -1 13 -3 15 C-4.953125 15.0546875 -4.953125 15.0546875 -7.25 14.875 C-11.94028095 14.76926098 -14.40634604 15.84459652 -18 19 C-20.17653756 22.43953967 -20.6480716 25.97223412 -21.2890625 29.953125 C-21.39721283 30.61334656 -21.50536316 31.27356812 -21.61679077 31.95379639 C-21.95899186 34.0515906 -22.29211524 36.1507094 -22.625 38.25 C-22.85617215 39.67718044 -23.08793652 41.10426508 -23.3203125 42.53125 C-23.88818885 46.01963327 -24.44375421 49.5096638 -25 53 C-30.61 53 -36.22 53 -42 53 C-40.75338044 42.38867798 -39.22599788 31.89198113 -37.34057617 21.37646484 C-36.92921852 19.07874208 -36.52579043 16.7797155 -36.12304688 14.48046875 C-35.86243643 13.01033553 -35.60138631 11.54028018 -35.33984375 10.0703125 C-35.22003647 9.38711945 -35.10022919 8.70392639 -34.97679138 8.00003052 C-34.11536227 3.23072453 -34.11536227 3.23072453 -33 1 C-27.72 1 -22.44 1 -17 1 C-17.33 3.64 -17.66 6.28 -18 9 C-17.443125 7.88625 -17.443125 7.88625 -16.875 6.75 C-12.3636444 0.13334512 -7.46043186 -0.59683455 0 0 Z " fill="#FA2500" transform="translate(142,46)"/>
<path d="M0 0 C5.61 0 11.22 0 17 0 C16.18262412 5.19213611 15.36491232 10.38421719 14.54638672 15.57617188 C14.26885283 17.33720963 13.99150437 19.09827662 13.71435547 20.859375 C12.93063601 25.83896434 12.14370821 30.81802216 11.35070801 35.79614258 C11.03005923 37.81110708 10.71168901 39.82643384 10.39355469 41.84179688 C10.21985352 42.92009766 10.04615234 43.99839844 9.8671875 45.109375 C9.7213623 46.02170898 9.57553711 46.93404297 9.42529297 47.87402344 C9 50 9 50 8 52 C2.72 52 -2.56 52 -8 52 C-7.34645597 40.91736601 -5.40266432 30.15748362 -3.4375 19.25 C-3.10431757 17.3776931 -2.77163137 15.50529782 -2.43945312 13.6328125 C-1.63292852 9.08731223 -0.81626493 4.54380373 0 0 Z " fill="#FB2500" transform="translate(203,47)"/>
<path d="M0 0 C2.875 1.8125 2.875 1.8125 5 5 C6.111621 11.18641251 5.45376848 16.8926527 2.26171875 22.3359375 C0.1458117 25.12657652 -1.81668386 26.56438684 -5 28 C-8.6875 28.0625 -8.6875 28.0625 -12 27 C-14.76845542 24.14223956 -15.20898196 21.53247773 -15.375 17.6875 C-15.13050046 11.5648241 -13.7672816 6.27927099 -9.1875 2 C-5.60994515 -0.2447403 -4.1220775 -0.87703777 0 0 Z " fill="#070100" transform="translate(256,59)"/>
<path d="M0 0 C2 1 2 1 3 3 C3.39296656 6.09461163 3.61866635 8.04348869 3 11 C0.88134472 13.6483191 -0.62217425 14.73807669 -3.97265625 15.375 C-7.38428478 15.57906002 -9.64405875 15.21703735 -12.5625 13.4375 C-14 11 -14 11 -14.0625 7.5 C-13 4 -13 4 -10.9375 1.5625 C-6.87627126 -0.59772805 -4.57244587 -0.51624389 0 0 Z " fill="#F72400" transform="translate(219,25)"/>
<path d="M0 0 C0.47721841 4.00863462 0.12859671 5.78014111 -1.9375 9.3125 C-4.83867294 12.47137024 -7.76866941 12.88193542 -11.9140625 13.28515625 C-14 13 -14 13 -15.78125 11.65234375 C-17 10 -17 10 -16.875 7.5 C-15.91228413 4.74938324 -15.26294236 3.78964722 -13 2 C-10.37109375 1.26953125 -10.37109375 1.26953125 -7.4375 0.8125 C-5.98150391 0.57466797 -5.98150391 0.57466797 -4.49609375 0.33203125 C-2 0 -2 0 0 0 Z " fill="#090100" transform="translate(171,76)"/>
</svg>
