<?xml version="1.0" encoding="UTF-8"?>
<svg version="1.1" xmlns="http://www.w3.org/2000/svg" width="50" height="50">
<path d="M0 0 C3.96 0.33 7.92 0.66 12 1 C12 4.96 12 8.92 12 13 C10.68 13 9.36 13 8 13 C7.67 12.34 7.34 11.68 7 11 C6.5875 11.4125 6.175 11.825 5.75 12.25 C4.4998264 13.5001736 3.22611247 14.72698525 1.9375 15.9375 C0.09769386 17.89600331 -0.94934334 19.54846779 -2 22 C-6.67692308 20.52307692 -6.67692308 20.52307692 -8.3125 17.875 C-8.539375 17.25625 -8.76625 16.6375 -9 16 C-11.06832488 17.82539198 -11.06832488 17.82539198 -11.875 20 C-13 22 -13 22 -15 22.9375 C-17.74986668 24.39836667 -18.08833304 26.11305462 -19 29 C-20.32 28.34 -21.64 27.68 -23 27 C-23 24 -23 24 -21.125 22.0625 C-20.073125 21.0415625 -20.073125 21.0415625 -19 20 C-18.67 19.29875 -18.34 18.5975 -18 17.875 C-17 16 -17 16 -15.0625 15.125 C-12.03999944 13.47636333 -11.33738259 11.07597995 -10 8 C-5.32307692 9.47692308 -5.32307692 9.47692308 -3.6875 12.125 C-3.3471875 13.053125 -3.3471875 13.053125 -3 14 C-0.92806846 12.16215076 -0.92806846 12.16215076 -0.0625 9.9375 C1 8 1 8 4 7 C2.68 6.67 1.36 6.34 0 6 C0 4.02 0 2.04 0 0 Z " fill="#999999" transform="translate(31,10)"/>
<path d="M0 0 C3.96 0.33 7.92 0.66 12 1 C12 4.96 12 8.92 12 13 C10.68 13 9.36 13 8 13 C7.34 12.01 6.68 11.02 6 10 C5.01 10.66 4.02 11.32 3 12 C3 8 3 8 4 6 C2.68 6 1.36 6 0 6 C0 4.02 0 2.04 0 0 Z " fill="#AFAFAF" transform="translate(31,10)"/>
<path d="M0 0 C1.98 0.66 3.96 1.32 6 2 C4.49230769 5.76923077 4.49230769 5.76923077 2 6.9375 C-0.74986668 8.39836667 -1.08833304 10.11305462 -2 13 C-3.32 12.34 -4.64 11.68 -6 11 C-6 8 -6 8 -4.125 6.0625 C-3.42375 5.381875 -2.7225 4.70125 -2 4 C-0.76487921 1.86690808 -0.76487921 1.86690808 0 0 Z " fill="#989898" transform="translate(14,26)"/>
<path d="M0 0 C0.66 0.33 1.32 0.66 2 1 C0.63016497 4.16115776 0.0109362 4.9927092 -3 7 C-3.33 6.01 -3.66 5.02 -4 4 C-2.68 2.68 -1.36 1.36 0 0 Z " fill="#F3F3F3" transform="translate(20,22)"/>
<path d="" fill="#000000" transform="translate(0,0)"/>
<path d="" fill="#000000" transform="translate(0,0)"/>
<path d="" fill="#000000" transform="translate(0,0)"/>
<path d="" fill="#000000" transform="translate(0,0)"/>
<path d="" fill="#000000" transform="translate(0,0)"/>
<path d="" fill="#000000" transform="translate(0,0)"/>
<path d="" fill="#000000" transform="translate(0,0)"/>
<path d="" fill="#000000" transform="translate(0,0)"/>
<path d="" fill="#000000" transform="translate(0,0)"/>
<path d="" fill="#000000" transform="translate(0,0)"/>
<path d="" fill="#000000" transform="translate(0,0)"/>
<path d="" fill="#000000" transform="translate(0,0)"/>
<path d="" fill="#000000" transform="translate(0,0)"/>
<path d="" fill="#000000" transform="translate(0,0)"/>
<path d="" fill="#000000" transform="translate(0,0)"/>
<path d="" fill="#000000" transform="translate(0,0)"/>
<path d="" fill="#000000" transform="translate(0,0)"/>
<path d="" fill="#000000" transform="translate(0,0)"/>
<path d="" fill="#000000" transform="translate(0,0)"/>
<path d="" fill="#000000" transform="translate(0,0)"/>
<path d="" fill="#000000" transform="translate(0,0)"/>
<path d="" fill="#000000" transform="translate(0,0)"/>
<path d="" fill="#000000" transform="translate(0,0)"/>
<path d="" fill="#000000" transform="translate(0,0)"/>
<path d="" fill="#000000" transform="translate(0,0)"/>
<path d="" fill="#000000" transform="translate(0,0)"/>
</svg>
