<?xml version="1.0" encoding="UTF-8"?>
<svg version="1.1" xmlns="http://www.w3.org/2000/svg" width="50" height="50">
<path d="M0 0 C5.625 2.25 5.625 2.25 8 6 C6.515 8.475 6.515 8.475 5 11 C5.99 11.33 6.98 11.66 8 12 C7.01 13.98 6.02 15.96 5 18 C5.99 18.33 6.98 18.66 8 19 C7.01 21.475 7.01 21.475 6 24 C8.31 24.33 10.62 24.66 13 25 C13.66 23.35 14.32 21.7 15 20 C14.34 19.34 13.68 18.68 13 18 C15.29936306 13.28025478 15.29936306 13.28025478 18.5 12 C21 12 21 12 22.75 13.125 C24.26012724 15.39019086 24.63803085 17.32142828 25 20 C26.65 20.33 28.3 20.66 30 21 C30 19.68 30 18.36 30 17 C30.66 17 31.32 17 32 17 C32.26252625 12.66831683 31.29243536 9.1196377 30 5 C32.50721538 2.49278462 34.1688316 2.0193295 37.6875 1.9375 C38.450625 1.958125 39.21375 1.97875 40 2 C41.37473375 6.27694946 40.38688443 8.83934671 39 13 C38.34 13 37.68 13 37 13 C36.71125 14.134375 36.4225 15.26875 36.125 16.4375 C35.75375 17.613125 35.3825 18.78875 35 20 C34.01 20.495 34.01 20.495 33 21 C33.515625 22.093125 34.03125 23.18625 34.5625 24.3125 C36 28 36 28 35 31 C29.25 32.125 29.25 32.125 27 31 C25.98308736 29.00854609 24.98357352 27.00812926 24 25 C22.0745356 22.7763932 22.0745356 22.7763932 19 22 C17.89363605 24.39068734 17.89363605 24.39068734 17 27 C17.33 27.66 17.66 28.32 18 29 C17.39239518 31.3494053 16.72870472 33.68529088 16 36 C13.69 35.67 11.38 35.34 9 35 C8.67 35.66 8.34 36.32 8 37 C7.34 37 6.68 37 6 37 C5.67 37.66 5.34 38.32 5 39 C17.21 39 29.42 39 42 39 C42.66 40.65 43.32 42.3 44 44 C29.48 44 14.96 44 0 44 C0 29.48 0 14.96 0 0 Z M18 16 C18.33 16.66 18.66 17.32 19 18 C19.33 17.34 19.66 16.68 20 16 C19.34 16 18.68 16 18 16 Z M7 27 C8 29 8 29 8 29 Z M5 29 C5 29.99 5 30.98 5 32 C5.66 32 6.32 32 7 32 C7 31.01 7 30.02 7 29 C6.34 29 5.68 29 5 29 Z M7 32 C8 34 8 34 8 34 Z " fill="#CACACA" transform="translate(3,3)"/>
<path d="M0 0 C5.625 2.25 5.625 2.25 8 6 C6.515 8.475 6.515 8.475 5 11 C5.99 11.33 6.98 11.66 8 12 C7.01 13.98 6.02 15.96 5 18 C5.99 18.33 6.98 18.66 8 19 C7.01 20.98 6.02 22.96 5 25 C5.66 25 6.32 25 7 25 C7 26.32 7 27.64 7 29 C6.34 29 5.68 29 5 29 C5 29.99 5 30.98 5 32 C5.66 32 6.32 32 7 32 C7 33.32 7 34.64 7 36 C6.34 36 5.68 36 5 36 C5 36.99 5 37.98 5 39 C17.21 39 29.42 39 42 39 C42.66 40.65 43.32 42.3 44 44 C29.48 44 14.96 44 0 44 C0 29.48 0 14.96 0 0 Z " fill="#DCDCDC" transform="translate(3,3)"/>
<path d="M0 0 C2.64 0 5.28 0 8 0 C9.37473375 4.27694946 8.38688443 6.83934671 7 11 C6.34 11 5.68 11 5 11 C4.34 13.31 3.68 15.62 3 18 C2.01 18 1.02 18 0 18 C-0.66 17.01 -1.32 16.02 -2 15 C-1.34 15 -0.68 15 0 15 C0.26252625 10.66831683 -0.70756464 7.1196377 -2 3 C-1.34 2.34 -0.68 1.68 0 1 C0 0.67 0 0.34 0 0 Z " fill="#C5C5C5" transform="translate(35,5)"/>
<path d="M0 0 C0.66 0 1.32 0 2 0 C4.21474076 5.04468729 3.85072153 7.85910687 2 13 C-0.31 12.67 -2.62 12.34 -5 12 C-5.33 12.66 -5.66 13.32 -6 14 C-6.66 13.67 -7.32 13.34 -8 13 C-7.814375 11.948125 -7.62875 10.89625 -7.4375 9.8125 C-7.04920669 6.42880118 -7.11752515 4.23574112 -8 1 C-5.69 1.33 -3.38 1.66 -1 2 C-0.67 1.34 -0.34 0.68 0 0 Z " fill="#B5B5B5" transform="translate(17,26)"/>
<path d="M0 0 C2.475 0.99 2.475 0.99 5 2 C5 5.27275026 4.70074844 7.846632 4 11 C2.0625 10.6875 2.0625 10.6875 0 10 C-0.33 9.01 -0.66 8.02 -1 7 C-0.34 7 0.32 7 1 7 C1.15149298 3.37114676 1.15149298 3.37114676 0 0 Z " fill="#949494" transform="translate(34,13)"/>
<path d="" fill="#000000" transform="translate(0,0)"/>
<path d="" fill="#000000" transform="translate(0,0)"/>
<path d="" fill="#000000" transform="translate(0,0)"/>
<path d="" fill="#000000" transform="translate(0,0)"/>
<path d="" fill="#000000" transform="translate(0,0)"/>
<path d="" fill="#000000" transform="translate(0,0)"/>
<path d="" fill="#000000" transform="translate(0,0)"/>
<path d="" fill="#000000" transform="translate(0,0)"/>
<path d="" fill="#000000" transform="translate(0,0)"/>
<path d="" fill="#000000" transform="translate(0,0)"/>
<path d="" fill="#000000" transform="translate(0,0)"/>
<path d="" fill="#000000" transform="translate(0,0)"/>
<path d="" fill="#000000" transform="translate(0,0)"/>
<path d="" fill="#000000" transform="translate(0,0)"/>
<path d="" fill="#000000" transform="translate(0,0)"/>
<path d="" fill="#000000" transform="translate(0,0)"/>
<path d="" fill="#000000" transform="translate(0,0)"/>
<path d="" fill="#000000" transform="translate(0,0)"/>
<path d="" fill="#000000" transform="translate(0,0)"/>
<path d="" fill="#000000" transform="translate(0,0)"/>
<path d="" fill="#000000" transform="translate(0,0)"/>
<path d="" fill="#000000" transform="translate(0,0)"/>
<path d="" fill="#000000" transform="translate(0,0)"/>
<path d="" fill="#000000" transform="translate(0,0)"/>
<path d="" fill="#000000" transform="translate(0,0)"/>
<path d="" fill="#000000" transform="translate(0,0)"/>
<path d="" fill="#000000" transform="translate(0,0)"/>
<path d="" fill="#000000" transform="translate(0,0)"/>
<path d="" fill="#000000" transform="translate(0,0)"/>
<path d="" fill="#000000" transform="translate(0,0)"/>
<path d="" fill="#000000" transform="translate(0,0)"/>
<path d="" fill="#000000" transform="translate(0,0)"/>
<path d="" fill="#000000" transform="translate(0,0)"/>
<path d="" fill="#000000" transform="translate(0,0)"/>
<path d="" fill="#000000" transform="translate(0,0)"/>
</svg>
