<?xml version="1.0" encoding="UTF-8"?>
<svg version="1.1" xmlns="http://www.w3.org/2000/svg" width="50" height="50">
<path d="M0 0 C0.66 0.66 1.32 1.32 2 2 C0.51346494 5.46629835 -1.45722351 7.69022036 -4.1328125 10.328125 C-5.34130859 11.52695312 -5.34130859 11.52695312 -6.57421875 12.75 C-7.83685547 13.9875 -7.83685547 13.9875 -9.125 15.25 C-9.97449219 16.09046875 -10.82398437 16.9309375 -11.69921875 17.796875 C-13.79504923 19.86915683 -15.89540713 21.93662393 -18 24 C-21.41059403 22.39464713 -23.61792484 20.59481099 -26.25 17.875 C-26.95640625 17.15054687 -27.6628125 16.42609375 -28.390625 15.6796875 C-28.92171875 15.12539063 -29.4528125 14.57109375 -30 14 C-29.67 13.01 -29.34 12.02 -29 11 C-26.9375 10.3125 -26.9375 10.3125 -25 10 C-24.731875 10.61875 -24.46375 11.2375 -24.1875 11.875 C-23.04443152 14.2995233 -23.04443152 14.2995233 -20 16 C-16.58173852 15.68917217 -14.94625869 14.29707112 -12.6171875 11.875 C-12.00746094 11.25109375 -11.39773437 10.6271875 -10.76953125 9.984375 C-10.14433594 9.32953125 -9.51914062 8.6746875 -8.875 8 C-7.6245462 6.70625147 -6.37203752 5.41448494 -5.1171875 4.125 C-4.56659668 3.55007812 -4.01600586 2.97515625 -3.44873047 2.3828125 C-2 1 -2 1 0 0 Z " fill="#DFDFDF" transform="translate(44,12)"/>
<path d="M0 0 C1.9375 0.8125 1.9375 0.8125 4 2 C4.33 2.99 4.66 3.98 5 5 C3.4324482 6.7021698 1.84540216 8.38640554 0.25 10.0625 C-0.63171875 11.00222656 -1.5134375 11.94195312 -2.421875 12.91015625 C-5 15 -5 15 -7.328125 14.80859375 C-9 14 -9 14 -9.80859375 12.328125 C-10 10 -10 10 -7.91015625 7.421875 C-6.97042969 6.54015625 -6.03070312 5.6584375 -5.0625 4.75 C-4.12535156 3.85796875 -3.18820313 2.9659375 -2.22265625 2.046875 C-1.48917969 1.37140625 -0.75570312 0.6959375 0 0 Z " fill="#B8B8B8" transform="translate(33,12)"/>
<path d="M0 0 C4.18283942 1.38435611 6.74895619 3.28995348 9.875 6.375 C10.67679688 7.14585938 11.47859375 7.91671875 12.3046875 8.7109375 C14 11 14 11 13.7578125 13.2890625 C13.50773437 13.85367188 13.25765625 14.41828125 13 15 C2.02553281 9.01392699 2.02553281 9.01392699 0.296875 3.93359375 C0 2 0 2 0 0 Z " fill="#D1D1D1" transform="translate(5,22)"/>
<path d="M0 0 C0.66 0 1.32 0 2 0 C1.67 0.66 1.34 1.32 1 2 C0.67 1.34 0.34 0.68 0 0 Z " fill="#000000" transform="translate(22,26)"/>
<path d="" fill="#000000" transform="translate(0,0)"/>
<path d="" fill="#000000" transform="translate(0,0)"/>
<path d="" fill="#000000" transform="translate(0,0)"/>
<path d="" fill="#000000" transform="translate(0,0)"/>
<path d="" fill="#000000" transform="translate(0,0)"/>
<path d="" fill="#000000" transform="translate(0,0)"/>
<path d="" fill="#000000" transform="translate(0,0)"/>
<path d="" fill="#000000" transform="translate(0,0)"/>
<path d="" fill="#000000" transform="translate(0,0)"/>
<path d="" fill="#000000" transform="translate(0,0)"/>
<path d="" fill="#000000" transform="translate(0,0)"/>
<path d="" fill="#000000" transform="translate(0,0)"/>
<path d="" fill="#000000" transform="translate(0,0)"/>
<path d="" fill="#000000" transform="translate(0,0)"/>
<path d="" fill="#000000" transform="translate(0,0)"/>
<path d="" fill="#1C1C1C" transform="translate(0,0)"/>
<path d="" fill="#000000" transform="translate(0,0)"/>
<path d="" fill="#000000" transform="translate(0,0)"/>
<path d="" fill="#1C1C1C" transform="translate(0,0)"/>
<path d="" fill="#000000" transform="translate(0,0)"/>
<path d="" fill="#000000" transform="translate(0,0)"/>
<path d="" fill="#1C1C1C" transform="translate(0,0)"/>
<path d="" fill="#000000" transform="translate(0,0)"/>
<path d="" fill="#000000" transform="translate(0,0)"/>
<path d="" fill="#1C1C1C" transform="translate(0,0)"/>
<path d="" fill="#000000" transform="translate(0,0)"/>
<path d="" fill="#000000" transform="translate(0,0)"/>
<path d="" fill="#000000" transform="translate(0,0)"/>
<path d="" fill="#1C1C1C" transform="translate(0,0)"/>
<path d="" fill="#000000" transform="translate(0,0)"/>
<path d="" fill="#000000" transform="translate(0,0)"/>
<path d="" fill="#000000" transform="translate(0,0)"/>
<path d="" fill="#000000" transform="translate(0,0)"/>
<path d="" fill="#000000" transform="translate(0,0)"/>
<path d="" fill="#000000" transform="translate(0,0)"/>
<path d="" fill="#000000" transform="translate(0,0)"/>
<path d="" fill="#000000" transform="translate(0,0)"/>
<path d="" fill="#000000" transform="translate(0,0)"/>
<path d="" fill="#000000" transform="translate(0,0)"/>
<path d="" fill="#000000" transform="translate(0,0)"/>
<path d="" fill="#000000" transform="translate(0,0)"/>
<path d="" fill="#000000" transform="translate(0,0)"/>
<path d="" fill="#000000" transform="translate(0,0)"/>
<path d="" fill="#000000" transform="translate(0,0)"/>
<path d="" fill="#000000" transform="translate(0,0)"/>
<path d="" fill="#000000" transform="translate(0,0)"/>
<path d="" fill="#000000" transform="translate(0,0)"/>
<path d="" fill="#000000" transform="translate(0,0)"/>
<path d="" fill="#000000" transform="translate(0,0)"/>
<path d="" fill="#000000" transform="translate(0,0)"/>
<path d="" fill="#000000" transform="translate(0,0)"/>
<path d="" fill="#000000" transform="translate(0,0)"/>
<path d="" fill="#000000" transform="translate(0,0)"/>
<path d="" fill="#000000" transform="translate(0,0)"/>
<path d="" fill="#000000" transform="translate(0,0)"/>
</svg>
